<?xml version="1.0" standalone="no"?>
<!DOCTYPE svg PUBLIC "-//W3C//DTD SVG 20010904//EN"
 "http://www.w3.org/TR/2001/REC-SVG-20010904/DTD/svg10.dtd">
<svg version="1.0" xmlns="http://www.w3.org/2000/svg"
 width="335.000000pt" height="335.000000pt" viewBox="0 0 335.000000 335.000000"
 preserveAspectRatio="xMidYMid meet">
<metadata>
Created by potrace 1.14, written by Peter Selinger 2001-2017
</metadata>
<g transform="translate(0.000000,335.000000) scale(0.100000,-0.100000)"
fill="#000000" stroke="none">
<path d="M1479 3314 c-96 -17 -200 -54 -310 -110 l-86 -44 -43 15 c-23 8 -46
15 -51 15 -5 0 -9 -27 -9 -60 0 -58 -2 -62 -41 -97 -143 -129 -324 -455 -448
-806 -58 -165 -222 -373 -404 -511 -43 -33 -67 -73 -67 -110 0 -30 72 -93 118
-102 87 -17 612 74 770 134 l53 20 -43 -37 -42 -38 -7 -219 c-8 -269 -20 -334
-66 -380 -18 -18 -33 -40 -33 -49 0 -10 -9 -15 -27 -15 -14 0 -80 -25 -145
-55 -109 -51 -124 -55 -191 -55 -139 -1 -290 -48 -313 -100 -6 -14 -19 -41
-27 -60 -9 -19 -27 -60 -40 -90 -22 -49 -25 -70 -26 -183 -2 -140 11 -187 50
-187 11 0 27 -7 35 -15 13 -12 10 -24 -26 -95 l-40 -80 680 0 c374 0 680 2
680 5 0 3 -27 23 -60 44 l-60 39 37 30 c51 39 132 88 163 97 20 6 19 3 -10
-17 -27 -18 -36 -31 -38 -60 -2 -29 2 -40 24 -57 15 -11 39 -21 54 -21 34 0
70 38 70 73 0 34 15 34 71 3 24 -14 71 -32 104 -42 65 -18 129 -48 159 -73 14
-13 48 -16 175 -18 l156 -2 -110 54 c-192 94 -453 190 -785 290 -109 32 -157
60 -140 80 7 8 18 15 24 15 20 0 230 107 273 139 53 38 103 106 103 138 0 12
4 23 9 23 5 0 40 -24 77 -54 38 -30 121 -91 184 -137 179 -129 337 -248 430
-324 112 -93 132 -106 93 -64 -30 32 -32 36 -18 56 43 61 59 252 29 354 -18
60 -63 149 -76 149 -4 0 -8 7 -8 16 0 25 20 13 138 -86 64 -53 119 -108 132
-132 21 -37 22 -49 17 -137 -3 -53 -17 -150 -32 -216 -15 -66 -30 -131 -33
-144 -3 -17 -1 -22 9 -19 7 2 16 15 19 29 l6 24 18 -27 18 -28 374 0 374 0 0
68 0 68 -85 74 c-46 40 -103 90 -125 111 -23 21 -72 59 -109 84 -87 58 -116
89 -152 161 -24 49 -26 60 -14 67 25 14 17 33 -35 87 -27 28 -55 63 -62 78
-10 22 -28 32 -90 52 l-77 25 2 122 c2 119 1 123 -23 148 -16 16 -53 33 -100
45 -41 12 -81 23 -89 26 -19 6 66 84 101 91 42 8 62 36 55 77 -5 29 -2 37 19
51 28 18 32 58 7 77 -10 7 -28 34 -40 60 -12 26 -38 64 -56 85 l-34 38 54 49
54 49 107 -22 c154 -30 359 -59 523 -73 136 -11 142 -11 156 8 18 24 10 72
-20 134 -16 32 -42 57 -89 90 -182 125 -267 238 -363 480 -143 364 -286 563
-515 715 -218 146 -420 206 -683 204 -62 0 -146 -7 -188 -15z m387 -19 c378
-61 695 -297 871 -650 41 -80 105 -238 117 -285 7 -24 6 -24 -6 -4 -15 24 -43
19 -44 -8 -3 -59 -3 -61 -20 -47 -13 11 -14 9 -9 -17 10 -47 -10 -8 -56 107
-83 209 -157 330 -275 451 -164 168 -373 266 -637 298 -160 19 -338 -6 -493
-71 l-75 -31 -27 23 c-15 13 -33 32 -40 42 -7 9 -19 17 -26 17 -6 0 -17 5 -24
12 -9 9 5 22 65 55 196 108 441 147 679 108z m-813 -139 c2 2 10 -2 17 -11 7
-8 18 -15 24 -15 6 0 21 -15 34 -33 12 -17 22 -26 22 -19 0 18 58 -27 66 -50
3 -10 12 -18 20 -18 8 0 17 -13 20 -29 5 -21 11 -27 24 -24 16 4 17 0 10 -35
-5 -30 -4 -39 5 -35 19 7 13 -52 -8 -74 -18 -21 -23 -53 -8 -53 10 0 8 -162
-3 -200 -15 -50 -29 -80 -38 -80 -6 0 -8 7 -4 15 3 8 0 14 -7 12 -7 -1 -11 3
-10 10 2 6 -4 24 -12 39 -11 21 -11 30 -2 36 8 5 6 9 -6 14 -10 4 -16 13 -13
20 3 7 0 16 -6 20 -7 4 -6 9 3 15 11 7 9 12 -10 25 -17 12 -20 19 -10 24 9 6
4 15 -17 34 -23 20 -26 27 -15 35 11 7 9 11 -9 21 -12 6 -19 14 -16 17 3 4 -1
15 -11 25 -12 13 -13 18 -3 18 9 0 8 6 -5 20 -13 14 -14 20 -5 20 10 0 9 5 -3
18 -10 10 -14 21 -11 25 4 3 -3 18 -15 33 -22 28 -28 50 -11 39 6 -3 10 -2 10
4 0 6 -10 15 -21 22 -17 9 -19 13 -8 20 10 7 11 11 3 17 -13 8 -35 78 -27 86
3 2 15 1 28 -4 13 -5 25 -7 28 -4z m-112 -174 c-7 -13 -5 -31 4 -58 21 -57 18
-80 -10 -98 -27 -18 -31 -36 -14 -64 10 -15 4 -32 -34 -98 -60 -104 -153 -323
-216 -509 -28 -82 -66 -184 -83 -225 -42 -100 -166 -300 -192 -310 -12 -4 -46
-11 -76 -15 -30 -4 -63 -9 -73 -11 -14 -2 -17 1 -11 18 4 15 3 18 -7 12 -16
-10 11 33 75 119 81 107 149 235 205 388 30 79 76 200 103 268 51 130 60 178
13 66 -16 -36 -30 -63 -33 -61 -10 11 126 294 188 390 75 114 200 261 161 188z
m539 -67 c10 -13 10 -19 -4 -34 -30 -33 -45 -108 -61 -304 -27 -339 -23 -316
-63 -333 -28 -12 -37 -12 -44 -2 -11 19 -10 28 5 28 8 0 7 4 -3 10 -20 13 -33
13 -25 0 3 -5 2 -10 -4 -10 -15 0 -26 23 -13 28 7 2 12 11 12 19 0 9 -6 13
-14 10 -10 -4 -13 -1 -10 7 6 16 44 9 45 -8 0 -6 5 2 10 18 9 31 -3 57 -25 55
-7 0 -6 -2 2 -6 6 -2 12 -14 12 -26 0 -21 0 -21 -16 1 -9 13 -22 21 -30 18 -7
-3 -16 -1 -18 3 -8 13 64 21 85 10 22 -11 27 -77 7 -97 -7 -7 -8 -12 -2 -12
20 0 34 24 34 57 0 47 -34 78 -93 87 -51 8 -62 23 -21 28 16 2 37 17 53 38 17
23 20 30 7 20 -18 -14 -18 -13 -12 8 3 12 9 32 12 43 5 17 8 19 15 8 6 -10 9
-8 9 9 0 12 -6 31 -12 42 -11 17 -10 22 1 29 11 7 11 12 -2 32 -8 13 -18 40
-21 60 -6 33 -3 40 27 65 19 16 55 41 80 56 26 15 47 31 46 35 -4 27 12 31 31
8z m-260 -620 c0 -5 -5 -3 -10 5 -5 8 -10 20 -10 25 0 6 5 3 10 -5 5 -8 10
-19 10 -25z m20 -36 c0 -5 5 -7 12 -3 7 4 8 3 4 -4 -10 -16 -23 -15 -30 3 -3
8 -1 15 4 15 6 0 10 -5 10 -11z m50 -31 c0 -18 -2 -20 -9 -8 -6 8 -7 18 -5 22
9 14 14 9 14 -14z m1588 -96 c9 9 12 8 12 -5 0 -13 6 -16 23 -12 58 15 62 13
152 -75 50 -48 116 -104 147 -124 59 -37 80 -62 93 -106 6 -20 5 -23 -6 -12
-7 7 -38 12 -71 12 -56 0 -58 1 -82 38 -14 23 -72 74 -143 126 -85 63 -128
102 -152 139 -28 43 -29 48 -9 30 19 -18 27 -20 36 -11z m-983 -16 l40 -13
-57 0 c-91 -2 -176 -36 -258 -103 -25 -20 -70 -47 -101 -59 -48 -19 -58 -27
-63 -53 -9 -45 7 -58 75 -58 41 0 68 -6 93 -21 38 -22 48 -43 19 -37 -10 2
-17 9 -16 15 1 5 -11 10 -28 11 -35 1 -38 -14 -4 -30 13 -6 22 -15 18 -21 -3
-6 -1 -7 4 -4 6 4 25 -1 44 -10 73 -37 266 -33 356 7 25 11 53 20 63 20 9 0
25 9 35 20 16 17 31 19 154 19 103 0 154 5 211 20 70 18 92 19 78 5 -4 -3 -21
-8 -40 -11 -39 -6 -77 -25 -41 -21 12 2 21 -1 20 -7 -2 -11 -13 -13 -75 -16
-31 -2 -41 -6 -37 -16 3 -8 0 -11 -6 -7 -6 3 -9 15 -6 25 3 11 2 19 -3 19 -4
0 -10 -9 -13 -20 -3 -11 -16 -24 -30 -29 -28 -11 -94 -4 -103 10 -3 5 -12 9
-21 9 -12 0 -9 -7 11 -25 27 -25 53 -34 41 -15 -3 6 0 10 9 10 8 0 16 -6 19
-12 3 -10 12 -9 35 5 33 19 57 23 47 7 -3 -5 -16 -11 -28 -11 -17 -1 -16 -3 8
-9 35 -10 -106 -5 -172 5 -29 5 -43 3 -43 -4 0 -6 11 -11 25 -11 28 0 95 -31
133 -61 22 -17 26 -17 39 -3 17 16 69 11 88 -9 7 -7 6 -8 -2 -3 -7 4 -13 3
-13 -2 0 -16 27 -21 41 -9 7 7 5 2 -5 -10 -18 -22 -18 -23 -1 -23 10 0 15 -3
12 -6 -3 -4 -2 -15 4 -25 8 -15 6 -21 -8 -26 -10 -4 -20 -10 -23 -14 -3 -4
-23 -10 -45 -14 -30 -5 -36 -4 -25 4 13 9 13 11 -2 11 -9 0 -20 -5 -23 -10 -4
-6 -13 -7 -23 -1 -9 5 -33 6 -52 3 -33 -5 -34 -6 -10 -13 14 -4 -4 -5 -40 -2
-107 9 -201 9 -207 0 -3 -5 22 -7 55 -5 34 1 64 -1 69 -6 4 -5 -35 -6 -92 -2
-143 9 -208 18 -194 26 11 7 -53 5 -170 -4 -28 -3 -39 -1 -30 5 8 5 50 9 93 9
44 0 76 3 72 7 -10 10 -137 6 -167 -6 -15 -5 -30 -8 -33 -5 -3 2 -2 -1 4 -8
10 -12 -14 -37 -35 -37 -5 0 -1 6 9 14 11 8 15 15 9 15 -6 0 -16 -7 -23 -15
-7 -8 -9 -15 -5 -15 3 0 -3 -15 -14 -34 -27 -43 -27 -90 0 -117 20 -20 27 -21
98 -13 42 4 110 8 151 8 133 -1 607 -21 550 -23 -37 -2 -49 -5 -36 -10 11 -4
33 -7 50 -6 l29 2 -23 -19 c-17 -14 -25 -16 -31 -7 -5 9 -14 9 -38 -1 -31 -12
-59 -39 -30 -28 47 18 60 17 26 -2 -83 -46 -257 -100 -257 -80 0 6 10 10 23
11 12 0 40 7 62 15 l40 13 -40 -4 c-39 -5 -39 -5 -15 9 14 9 19 15 13 16 -8 0
-13 15 -13 39 0 22 5 42 13 44 18 8 -125 8 -162 1 -28 -6 -31 -10 -31 -44 0
-21 5 -40 12 -42 7 -3 -2 -10 -20 -16 l-32 -11 0 54 c0 51 -1 54 -27 57 -16 2
-56 -1 -91 -6 -46 -7 -73 -6 -98 3 -20 7 -38 10 -41 7 -3 -3 6 -8 20 -11 14
-4 28 -12 30 -19 3 -8 -14 -11 -57 -10 -90 1 -108 5 -71 14 29 8 28 9 -8 7
-57 -2 -70 20 -63 108 3 39 2 61 -1 51 -4 -15 -7 -16 -15 -5 -8 11 -9 10 -4
-4 3 -9 1 -29 -5 -44 -15 -41 -2 -92 33 -125 16 -15 25 -28 20 -28 -6 0 -14 5
-17 10 -4 6 -10 8 -15 5 -11 -7 -116 33 -199 75 -49 24 -61 34 -50 42 10 6 7
7 -11 2 -14 -3 -22 -3 -18 1 4 5 3 14 -3 22 -9 10 -8 13 1 13 8 0 11 3 7 6 -3
3 -11 3 -17 -1 -8 -5 -8 -11 1 -21 19 -23 -6 -16 -35 11 -33 31 -35 94 -5 180
37 110 97 215 121 215 7 0 2 -9 -10 -20 -12 -12 -22 -26 -22 -33 0 -7 4 -6 10
3 9 13 11 13 21 0 9 -12 10 -12 5 4 -4 11 1 27 11 39 10 11 12 17 6 13 -56
-32 101 130 164 171 15 10 54 39 86 65 108 89 171 115 277 116 25 0 63 -5 85
-12z m520 -20 c37 -11 33 -12 -47 -8 -74 4 -100 0 -172 -22 -80 -25 -124 -26
-110 -4 4 6 -2 7 -16 3 -15 -5 -20 -4 -16 4 23 36 271 55 361 27z m-391 -47
c33 -13 61 -30 64 -37 2 -8 -8 -6 -30 7 -93 53 -230 53 -335 0 -36 -18 -68
-39 -71 -47 -6 -17 -119 -72 -147 -72 -11 1 2 10 29 20 27 11 65 32 85 48 55
44 113 78 162 96 61 22 167 16 243 -15z m414 10 c28 -5 58 -16 68 -24 14 -11
8 -10 -26 2 -68 24 -200 21 -275 -7 -83 -30 -109 -34 -55 -8 92 44 194 58 288
37z m-425 -51 c77 -22 85 -34 14 -18 -32 7 -69 7 -118 0 -40 -6 -74 -8 -77 -5
-3 3 4 5 16 5 12 0 22 5 22 11 0 6 10 9 23 6 12 -3 31 -1 42 4 14 6 0 8 -45 7
-51 -1 -68 -6 -80 -21 -13 -16 -20 -18 -37 -9 -15 9 -25 8 -39 -4 -18 -13 -17
-14 10 -8 20 5 27 4 22 -5 -5 -8 0 -8 19 -1 47 18 41 10 -15 -19 -30 -16 -61
-26 -69 -23 -9 3 -12 1 -7 -6 3 -6 2 -14 -4 -17 -6 -4 -9 -1 -8 6 2 6 -3 14
-10 16 -7 3 -10 -1 -6 -10 7 -20 -33 -41 -110 -57 -38 -8 -62 -8 -68 -2 -7 7
8 14 42 21 62 13 75 20 130 66 113 94 196 109 353 63z m455 8 c50 -14 108 -43
100 -51 -2 -2 -30 6 -63 17 -47 16 -77 19 -135 15 -41 -2 -84 -8 -95 -11 l-20
-8 20 13 c11 7 40 17 65 21 37 6 33 6 -18 3 -34 -3 -75 -7 -90 -10 -15 -2 -9
2 13 9 52 19 157 19 223 2z m-277 -25 c-20 -13 5 -24 27 -12 11 6 22 8 25 4 4
-3 -19 -18 -51 -33 -57 -27 -57 -27 -68 -6 -9 19 -6 23 25 38 37 18 66 24 42
9z m-116 -30 c27 -7 30 -11 33 -53 3 -39 -1 -49 -20 -62 -33 -23 -38 -20 -38
23 0 32 -6 44 -31 65 -18 15 -44 26 -62 27 -26 0 -28 2 -12 8 20 8 75 5 130
-8z m284 4 c-43 -23 -57 -93 -27 -132 16 -20 -9 -24 -107 -17 -88 6 -96 8
-101 30 -13 51 -8 55 151 114 28 10 64 19 80 19 l30 0 -26 -14z m-467 -6 c-37
-11 -72 -59 -72 -100 0 -33 34 -69 65 -69 14 0 25 -5 25 -11 0 -8 -27 -10 -88
-7 -72 3 -99 10 -157 36 l-69 33 95 46 c123 60 178 82 209 82 22 -1 20 -2 -8
-10z m663 -17 c54 -27 57 -45 13 -72 -44 -27 -48 -26 -48 14 0 19 -9 45 -22
61 l-21 27 24 -7 c13 -4 38 -14 54 -23z m-125 4 c0 -20 -19 -31 -32 -18 -6 6
-7 15 -4 21 10 16 36 13 36 -3z m-480 -21 c0 -17 -23 -25 -40 -15 -11 7 -11
11 -1 24 14 17 41 11 41 -9z m440 -40 c0 -8 -4 -15 -10 -15 -5 0 -10 7 -10 15
0 8 5 15 10 15 6 0 10 -7 10 -15z m-490 -15 c0 -5 -4 -10 -10 -10 -5 0 -10 5
-10 10 0 6 5 10 10 10 6 0 10 -4 10 -10z m550 -5 c0 -8 -4 -15 -10 -15 -5 0
-10 7 -10 15 0 8 5 15 10 15 6 0 10 -7 10 -15z m-472 -17 c-7 -19 -38 -22 -38
-4 0 10 9 16 21 16 12 0 19 -5 17 -12z m132 -29 c0 -6 -6 -16 -12 -23 -16 -15
-88 -37 -100 -30 -4 3 -8 1 -8 -5 0 -15 -93 -31 -178 -31 -53 0 -72 3 -62 10
8 5 40 10 71 10 48 0 104 7 169 22 8 2 19 7 25 11 49 39 95 56 95 36z m-397
-53 c29 -10 35 -15 22 -20 -24 -9 -62 3 -62 20 0 8 1 14 1 14 1 0 18 -6 39
-14z m743 -17 c8 -13 -16 -31 -33 -24 -7 2 -15 0 -18 -5 -4 -6 -12 -10 -18
-10 -7 0 -4 5 5 11 10 5 15 16 12 24 -7 18 41 21 52 4z m-18 -90 c-6 -4 -7
-12 -3 -19 5 -8 1 -8 -13 1 -12 7 -18 17 -16 21 3 4 -12 9 -33 9 l-38 2 40 6
c41 7 84 -7 63 -20z m-123 0 c11 -17 -1 -21 -15 -4 -8 9 -8 15 -2 15 6 0 14
-5 17 -11z m161 -30 c19 -22 19 -22 -3 -8 -13 8 -23 17 -23 21 0 12 6 9 26
-13z m37 -59 c3 -11 2 -18 -3 -15 -4 3 -10 14 -13 25 -3 11 -2 18 3 15 4 -3
10 -14 13 -25z m-20 -41 c-4 -4 -9 6 -10 24 -1 30 -1 31 8 8 5 -14 6 -28 2
-32z m37 7 c0 -2 -8 -10 -17 -17 -16 -13 -17 -12 -4 4 13 16 21 21 21 13z
m-90 -45 c-8 -5 -37 -12 -65 -15 l-50 -5 55 13 c67 17 80 18 60 7z m-140 -21
c0 -6 -31 -9 -77 -8 l-78 2 70 6 c39 4 73 7 78 8 4 1 7 -2 7 -8z m-1136 -139
c56 -32 137 -73 181 -91 134 -53 143 -58 160 -83 9 -15 19 -67 26 -138 5 -63
17 -156 25 -207 16 -97 14 -126 -4 -72 -10 27 -24 112 -52 309 -10 72 -27 97
-59 86 -33 -10 -48 -50 -81 -216 -35 -174 -77 -277 -135 -328 -38 -33 -79 -41
-89 -16 -3 8 -12 15 -21 15 -20 0 -19 10 2 25 13 10 11 11 -15 7 -20 -2 -32 0
-32 7 0 6 5 11 11 11 6 0 27 17 45 37 19 20 34 32 34 25 0 -6 7 -9 15 -6 13 5
14 2 5 -21 -9 -25 -9 -26 5 -15 21 17 29 7 16 -19 -19 -35 14 -14 43 27 37 54
64 140 87 276 22 133 38 179 75 217 l25 27 -33 6 c-61 12 -274 128 -342 188
-27 23 18 2 108 -51z m916 -101 c0 -25 5 -40 13 -40 6 0 4 -5 -6 -11 -9 -6
-32 -9 -50 -7 -31 3 -32 5 -35 51 l-3 47 40 0 41 0 0 -40z m-437 -17 c-7 -2
-19 -2 -25 0 -7 3 -2 5 12 5 14 0 19 -2 13 -5z m-60 -10 c-13 -2 -33 -2 -45 0
-13 2 -3 4 22 4 25 0 35 -2 23 -4z m70 -10 c-7 -2 -19 -2 -25 0 -7 3 -2 5 12
5 14 0 19 -2 13 -5z m-116 -25 c-3 -8 -6 -5 -6 6 -1 11 2 17 5 13 3 -3 4 -12
1 -19z m47 6 c3 -8 2 -12 -4 -9 -6 3 -10 10 -10 16 0 14 7 11 14 -7z m495 -18
c-2 -2 -22 -6 -44 -9 -27 -4 -35 -3 -25 3 14 9 79 15 69 6z m488 -23 c25 -28
25 -29 19 -143 -10 -186 -19 -275 -25 -258 -3 10 -2 91 2 182 7 146 6 168 -9
190 -20 31 -33 32 -65 7 -18 -14 -38 -59 -73 -163 -44 -133 -69 -188 -80 -177
-3 2 5 31 16 64 11 33 36 108 54 168 18 59 41 118 51 132 26 35 76 34 110 -2z
m-967 -7 c0 -3 -4 -8 -10 -11 -5 -3 -10 -1 -10 4 0 6 5 11 10 11 6 0 10 -2 10
-4z m82 -37 l113 -6 -100 -1 c-115 -2 -145 4 -145 27 0 14 2 14 10 1 7 -11 37
-16 122 -21z m51 14 c-13 -2 -33 -2 -45 0 -13 2 -3 4 22 4 25 0 35 -2 23 -4z
m54 1 c-3 -3 -12 -4 -19 -1 -8 3 -5 6 6 6 11 1 17 -2 13 -5z m113 -4 c0 -5
-19 -10 -42 -9 -37 1 -39 2 -18 9 36 12 60 12 60 0z m53 3 c-7 -2 -19 -2 -25
0 -7 3 -2 5 12 5 14 0 19 -2 13 -5z m275 -216 c34 -36 52 -92 59 -180 4 -48 9
-73 13 -62 5 15 10 9 22 -30 29 -92 38 -143 38 -221 0 -69 -14 -147 -29 -166
-3 -4 -34 16 -68 45 -34 29 -114 91 -179 137 -214 155 -393 290 -400 302 -4 6
30 -14 76 -46 45 -31 85 -54 89 -51 6 6 -68 74 -81 75 -4 0 -45 25 -91 56 -73
48 -86 61 -96 96 -7 22 -10 42 -8 45 7 6 156 -30 315 -77 205 -61 242 -55 282
45 12 30 26 55 29 55 4 0 17 -10 29 -23z m485 -64 c20 -8 37 -19 37 -23 0 -11
-82 -20 -124 -13 -55 9 -43 23 22 24 56 1 57 1 27 14 -16 8 -40 14 -52 15 -13
0 -23 4 -23 9 0 10 51 -2 113 -26z m-1923 -18 c0 -7 -78 -45 -93 -45 -8 0 -21
7 -28 16 -12 15 -11 16 6 11 11 -3 36 0 55 7 38 15 60 19 60 11z m-152 -39
c18 -9 37 -27 41 -39 11 -29 -20 -50 -106 -73 -76 -21 -231 -15 -308 11 -48
16 -95 49 -95 66 0 12 40 31 95 46 76 19 330 12 373 -11z m2159 -33 c15 -21
37 -46 48 -55 11 -10 15 -17 8 -18 -6 0 -15 5 -18 10 -3 6 -10 10 -15 10 -11
0 0 -39 23 -78 11 -18 17 -35 15 -37 -9 -10 -48 37 -48 58 0 32 -23 93 -43
115 -19 21 -22 32 -8 32 6 0 23 -17 38 -37z m-57 17 c12 -6 28 -37 40 -76 25
-81 25 -81 0 -59 -11 10 -19 23 -18 29 5 23 -12 62 -32 74 -19 11 -20 10 -20
-25 l-1 -38 -14 30 c-11 24 -14 26 -15 10 l-1 -20 -9 20 c-5 11 -9 28 -9 39
-1 15 4 17 24 12 14 -4 25 -2 25 4 0 13 6 13 30 0z m-92 -33 c3 -28 3 -28 -22
-12 -33 22 -35 48 -3 43 16 -2 23 -11 25 -31z m-1578 -6 c0 -4 -9 -16 -19 -25
-20 -18 -35 -9 -26 16 6 15 45 22 45 9z m1672 -45 c2 -19 0 -32 -4 -30 -8 5
-12 64 -4 64 2 0 6 -15 8 -34z m-1642 10 c0 -15 -37 -32 -47 -22 -9 8 17 36
33 36 8 0 14 -6 14 -14z m-409 -37 c29 -15 59 -93 66 -169 3 -36 12 -74 19
-85 16 -23 19 -85 4 -85 -5 0 -10 6 -10 14 0 7 -7 19 -15 26 -16 13 -40 90
-50 162 -3 26 -16 67 -29 92 -28 55 -24 66 15 45z m-60 -19 c10 -6 25 -26 33
-44 16 -40 32 -198 18 -177 -17 24 -22 -5 -10 -58 7 -34 8 -61 2 -83 l-10 -33
-14 32 c-8 17 -18 29 -22 27 -12 -8 -10 8 7 56 18 50 19 64 5 55 -6 -4 -10 19
-10 62 0 40 -5 74 -12 81 -7 7 -9 12 -5 12 4 0 0 14 -8 30 -9 17 -13 35 -10
40 8 13 12 12 36 0z m-54 -37 c16 -23 18 -52 19 -208 0 -99 -1 -172 -4 -162
-2 9 -10 17 -18 17 -8 0 -14 7 -14 16 0 9 -5 12 -12 8 -8 -5 -9 5 -4 37 4 24
7 51 6 59 0 8 -1 33 0 55 0 22 -4 74 -9 115 -5 41 -7 78 -5 82 9 15 23 8 41
-19z m-147 -8 c13 -16 13 -27 -10 -295 -3 -47 -7 -76 -8 -65 -2 17 -4 18 -12
5 -7 -11 -10 0 -10 38 0 28 5 52 10 52 6 0 10 12 9 28 0 15 -3 21 -6 15 -2 -7
-8 -13 -12 -13 -7 0 -3 213 4 238 6 16 20 15 35 -3z m81 -7 c7 -14 9 -46 5
-92 -7 -74 -23 -148 -25 -111 -1 16 -3 17 -11 5 -6 -10 -5 -17 5 -23 23 -12
19 -93 -5 -124 l-19 -25 -6 24 c-3 13 -2 77 4 143 5 66 7 144 4 173 -5 48 -4
52 15 52 12 0 27 -10 33 -22z m-145 -14 c4 -14 4 -54 0 -87 -4 -34 -9 -102
-13 -152 -5 -70 -8 -84 -15 -65 -13 35 -22 227 -14 283 8 52 31 64 42 21z
m-84 -89 c-6 -96 -18 -98 -21 -5 -1 34 17 115 24 108 2 -2 1 -48 -3 -103z
m-65 28 c-3 -10 -5 -2 -5 17 0 19 2 27 5 18 2 -10 2 -26 0 -35z m514 -212 c-9
-24 -9 -24 -10 -4 -1 12 -5 25 -11 28 -5 3 -10 27 -9 53 l0 47 20 -49 c15 -37
17 -55 10 -75z m467 17 c3 -13 5 -25 4 -28 -3 -9 -42 -7 -42 2 0 6 -6 8 -13 5
-6 -2 -17 1 -24 8 -16 18 3 35 40 35 22 0 30 -6 35 -22z m338 -134 c37 -55
-38 -80 -86 -29 -24 26 -20 42 13 54 30 11 56 2 73 -25z m1086 -56 c-13 -13
-42 2 -42 21 0 29 14 34 33 10 10 -13 14 -26 9 -31z m-1372 -6 c0 -5 -9 -19
-20 -32 -17 -19 -22 -21 -36 -9 -15 12 -14 15 6 31 23 19 50 24 50 10z"/>
<path d="M1335 2480 c-30 -8 -28 -11 13 -15 13 -1 22 3 22 11 0 8 -1 13 -2 13
-2 -1 -16 -5 -33 -9z"/>
<path d="M1771 2111 c-8 -5 5 -7 35 -4 27 3 51 7 53 9 9 8 -75 3 -88 -5z"/>
<path d="M1570 2010 c0 -5 5 -10 11 -10 5 0 7 5 4 10 -3 6 -8 10 -11 10 -2 0
-4 -4 -4 -10z"/>
<path d="M1557 1979 c-9 -5 -22 -7 -29 -3 -7 4 -8 3 -4 -4 9 -16 18 -15 42 3
22 17 17 19 -9 4z"/>
<path d="M1485 1950 c-3 -5 -2 -10 4 -10 5 0 13 5 16 10 3 6 2 10 -4 10 -5 0
-13 -4 -16 -10z"/>
<path d="M1416 1905 c-11 -8 -18 -17 -15 -19 2 -2 15 4 28 15 27 22 15 26 -13
4z"/>
<path d="M1417 1870 c-28 -28 -28 -29 -5 -23 18 4 20 2 8 -6 -12 -8 -11 -10 7
-8 16 1 19 4 12 13 -7 9 -7 19 1 33 14 28 11 26 -23 -9z"/>
<path d="M1346 1843 c-6 -14 -5 -15 5 -6 7 7 10 15 7 18 -3 3 -9 -2 -12 -12z"/>
<path d="M1535 1810 c4 -6 11 -8 16 -5 14 9 11 15 -7 15 -8 0 -12 -5 -9 -10z"/>
<path d="M2126 1782 c-3 -5 11 -9 32 -10 27 -1 33 1 22 8 -19 12 -47 13 -54 2z"/>
<path d="M2330 1783 c0 -5 -26 -7 -57 -6 -32 1 -47 -1 -34 -4 19 -4 21 -7 10
-15 -11 -7 -9 -9 6 -5 75 20 72 20 51 3 -11 -9 -15 -16 -9 -16 7 0 15 5 18 10
4 6 10 8 15 5 4 -3 10 4 13 15 3 11 1 20 -4 20 -5 0 -9 -3 -9 -7z"/>
<path d="M2418 1783 c6 -2 18 -2 25 0 6 3 1 5 -13 5 -14 0 -19 -2 -12 -5z"/>
<path d="M2140 1761 c0 -6 4 -13 10 -16 6 -3 7 1 4 9 -7 18 -14 21 -14 7z"/>
<path d="M2092 1749 c-13 -5 -20 -13 -17 -19 8 -13 35 -13 55 0 11 7 5 8 -20
5 l-35 -6 30 15 c33 16 23 20 -13 5z"/>
<path d="M2010 1722 c-19 -11 -42 -17 -50 -15 -12 4 -13 3 -1 -5 11 -8 10 -12
-5 -20 -11 -5 -25 -7 -33 -4 -8 2 -11 0 -7 -6 7 -11 -21 -25 -35 -16 -5 3 -8
0 -7 -7 2 -6 -3 -14 -11 -17 -9 -3 -11 0 -6 8 5 8 4 11 -3 6 -20 -12 -2 -33
28 -32 15 1 25 5 22 10 -3 5 3 6 14 2 10 -4 15 -4 11 0 -4 4 7 16 24 26 23 14
34 16 39 8 5 -8 9 -7 13 5 5 11 3 14 -6 10 -6 -4 -1 2 12 13 13 10 34 18 47
16 14 -1 21 2 18 8 -3 5 -13 7 -21 4 -11 -4 -13 -2 -9 9 7 19 8 19 -34 -3z"/>
<path d="M1637 1719 c7 -7 15 -10 18 -7 3 3 -2 9 -12 12 -14 6 -15 5 -6 -5z"/>
<path d="M2090 1706 c0 -2 7 -7 16 -10 8 -3 12 -2 9 4 -6 10 -25 14 -25 6z"/>
<path d="M1206 1684 c-5 -14 -4 -15 9 -4 17 14 19 20 6 20 -5 0 -12 -7 -15
-16z"/>
<path d="M1900 1696 c0 -2 9 -6 20 -9 11 -3 20 -1 20 4 0 5 -9 9 -20 9 -11 0
-20 -2 -20 -4z"/>
<path d="M2141 1686 c2 -2 18 -6 34 -10 22 -5 26 -4 15 4 -14 9 -59 15 -49 6z"/>
<path d="M1960 1640 c-9 -6 -10 -10 -3 -10 6 0 15 5 18 10 8 12 4 12 -15 0z"/>
<path d="M2245 1640 c-8 -14 10 -36 34 -43 26 -6 21 22 -6 40 -15 10 -23 11
-28 3z m40 -28 c-7 -8 -35 7 -35 18 0 6 7 6 20 -2 10 -7 17 -14 15 -16z"/>
<path d="M1172 1610 c-6 -11 -12 -25 -12 -32 1 -7 7 -2 15 12 8 14 14 19 15
11 0 -8 3 -12 6 -8 3 3 2 12 -3 21 -7 13 -10 13 -21 -4z"/>
<path d="M2375 1620 c-3 -5 -1 -10 4 -10 6 0 11 5 11 10 0 6 -2 10 -4 10 -3 0
-8 -4 -11 -10z"/>
<path d="M1955 1610 c-3 -5 -1 -10 4 -10 6 0 11 5 11 10 0 6 -2 10 -4 10 -3 0
-8 -4 -11 -10z"/>
<path d="M1182 1550 c0 -14 2 -19 5 -12 2 6 2 18 0 25 -3 6 -5 1 -5 -13z"/>
<path d="M1152 1535 c0 -16 2 -22 5 -12 2 9 2 23 0 30 -3 6 -5 -1 -5 -18z"/>
<path d="M1544 1494 c-18 -14 -18 -15 4 -4 12 6 22 13 22 15 0 8 -5 6 -26 -11z"/>
<path d="M1858 1503 c7 -3 16 -2 19 1 4 3 -2 6 -13 5 -11 0 -14 -3 -6 -6z"/>
<path d="M2158 1503 c7 -3 16 -2 19 1 4 3 -2 6 -13 5 -11 0 -14 -3 -6 -6z"/>
<path d="M1948 1493 c6 -2 18 -2 25 0 6 3 1 5 -13 5 -14 0 -19 -2 -12 -5z"/>
<path d="M1506 1424 c-11 -7 -16 -17 -13 -21 4 -4 15 1 24 10 22 21 14 30 -11
11z"/>
<path d="M1130 1421 c0 -6 5 -11 11 -11 5 0 8 -4 4 -9 -3 -5 -1 -12 5 -16 16
-10 12 21 -5 35 -10 9 -15 9 -15 1z"/>
<path d="M1490 1380 c-1 -8 -3 -25 -6 -38 -2 -13 1 -31 6 -40 9 -14 10 -13 5
6 -4 13 -1 29 5 37 8 10 9 19 1 32 -8 14 -11 15 -11 3z"/>
<path d="M1277 1323 c-8 -12 30 -29 40 -19 4 3 -1 6 -9 6 -9 0 -18 5 -20 12
-3 9 -6 9 -11 1z"/>
<path d="M1328 1323 c7 -3 16 -2 19 1 4 3 -2 6 -13 5 -11 0 -14 -3 -6 -6z"/>
<path d="M1510 1318 c0 -9 5 -20 10 -23 6 -4 8 -11 5 -16 -4 -5 -1 -9 4 -9 14
0 14 2 -4 36 -9 18 -15 23 -15 12z"/>
<path d="M1338 1293 c7 -3 16 -2 19 1 4 3 -2 6 -13 5 -11 0 -14 -3 -6 -6z"/>
<path d="M1721 1289 c-19 -4 -41 -5 -50 -2 -14 4 -14 3 -1 -5 8 -4 44 -6 80
-3 48 5 57 8 35 12 -17 2 -45 2 -64 -2z"/>
<path d="M1842 1285 c7 -7 97 -9 105 -2 3 4 -20 7 -52 7 -32 0 -56 -2 -53 -5z"/>
<path d="M2195 1271 c11 -5 27 -6 35 -4 8 3 -7 -15 -33 -38 -44 -40 -52 -59
-23 -59 6 0 4 5 -4 10 -17 11 -19 10 45 13 26 2 30 6 30 32 0 17 4 36 8 43 6
9 -3 12 -35 11 -32 0 -38 -2 -23 -8z"/>
<path d="M1430 1251 c0 -10 30 -24 37 -17 3 2 -5 9 -16 16 -12 6 -21 7 -21 1z"/>
<path d="M1620 1250 c0 -5 5 -10 11 -10 5 0 7 5 4 10 -3 6 -8 10 -11 10 -2 0
-4 -4 -4 -10z"/>
<path d="M2268 1253 c7 -3 16 -2 19 1 4 3 -2 6 -13 5 -11 0 -14 -3 -6 -6z"/>
<path d="M1788 2003 c7 -3 16 -2 19 1 4 3 -2 6 -13 5 -11 0 -14 -3 -6 -6z"/>
<path d="M1687 1953 c-3 -5 6 -9 20 -10 19 -1 22 1 12 8 -17 11 -26 11 -32 2z"/>
<path d="M2141 1971 c-7 -5 -10 -14 -7 -20 10 -15 27 -14 24 2 -2 7 5 11 17 9
16 -2 17 -1 5 7 -18 13 -21 13 -39 2z"/>
<path d="M2060 1800 c-9 -6 -10 -10 -3 -10 6 0 15 5 18 10 8 12 4 12 -15 0z"/>
<path d="M2420 1736 c7 -7 14 -6 21 1 9 9 7 12 -9 10 -14 -1 -18 -5 -12 -11z"/>
<path d="M2033 1183 c9 -2 23 -2 30 0 6 3 -1 5 -18 5 -16 0 -22 -2 -12 -5z"/>
<path d="M303 770 c-50 -10 -83 -27 -83 -41 0 -18 72 -41 149 -48 99 -10 135
-3 138 27 2 12 -2 22 -7 22 -6 0 -10 -5 -10 -10 0 -20 -52 -32 -82 -19 -27 11
-34 37 -9 32 6 -2 11 2 11 8 0 21 -35 3 -40 -21 -3 -16 -13 -26 -27 -28 -26
-4 -31 13 -8 22 8 3 15 10 15 16 0 7 -6 8 -19 0 -24 -12 -41 -13 -41 -2 0 29
143 48 255 34 42 -5 46 -7 25 -13 -22 -6 -20 -7 13 -8 20 -1 37 -5 37 -10 0
-12 -48 -23 -71 -16 -14 5 -19 2 -19 -11 0 -13 6 -15 32 -10 36 7 78 32 78 45
0 29 -241 51 -337 31z"/>
<path d="M1445 160 c-3 -5 -1 -10 4 -10 6 0 11 5 11 10 0 6 -2 10 -4 10 -3 0
-8 -4 -11 -10z"/>
<path d="M2470 565 c0 -20 32 -75 51 -89 44 -30 66 -12 34 30 -13 16 -14 16
-9 2 3 -10 2 -18 -3 -18 -15 0 -53 45 -53 63 0 9 -4 17 -10 17 -5 0 -10 -2
-10 -5z"/>
<path d="M1510 480 c49 -12 78 -58 48 -77 -35 -21 -88 -1 -88 34 0 8 -4 11
-10 8 -14 -9 -12 9 3 24 10 10 9 11 -4 6 -17 -6 -39 -46 -39 -70 0 -8 11 -26
23 -41 46 -53 137 -19 137 52 0 39 -39 75 -79 73 -22 -1 -21 -2 9 -9z"/>
</g>
</svg>
